<mxfile host="app.diagrams.net" modified="2023-04-11T09:06:59.803Z" agent="Mozilla/5.0 (Windows NT 10.0; Win64; x64; rv:109.0) Gecko/20100101 Firefox/111.0" version="21.1.5" etag="hadmX_5r0dEEUMtpGbvt" type="github">
  <diagram name="Page-1" id="nZ0RZAf4ym4g91CGQYbj">
    <mxGraphModel>
      <root>
        <mxCell id="0" />
        <mxCell id="1" parent="0" />
      </root>
    </mxGraphModel>
  </diagram>
</mxfile>
